<svg xmlns="http://www.w3.org/2000/svg" viewBox="0 0 200 200" fill="none">
  <defs>
    <linearGradient id="g" x1="0" y1="0" x2="1" y2="1">
      <stop offset="0%" stop-color="#D4AF37"/>
      <stop offset="100%" stop-color="#F7E7A9"/>
    </linearGradient>
    <linearGradient id="face" x1="0" y1="0" x2="0" y2="1">
      <stop offset="0%" stop-color="#1a2744"/>
      <stop offset="100%" stop-color="#0D182E"/>
    </linearGradient>
  </defs>
  <circle cx="100" cy="100" r="96" fill="#070E1C" stroke="url(#g)" stroke-width="4"/>
  <ellipse cx="100" cy="72" rx="52" ry="28" fill="#0a1220"/>
  <path d="M48 78 Q100 48 152 78 L148 95 Q100 70 52 95 Z" fill="#121c30"/>
  <rect x="55" y="70" width="90" height="95" rx="28" fill="url(#face)" stroke="#D4AF37" stroke-width="2"/>
  <rect x="68" y="95" width="26" height="16" rx="4" fill="#0B1528" stroke="#D4AF37" stroke-width="1.5"/>
  <rect x="106" y="95" width="26" height="16" rx="4" fill="#0B1528" stroke="#D4AF37" stroke-width="1.5"/>
  <circle cx="81" cy="103" r="4" fill="#34D399"/>
  <circle cx="119" cy="103" r="4" fill="#34D399"/>
  <path d="M78 128 Q100 142 122 128" stroke="#D4AF37" stroke-width="2.5" stroke-linecap="round"/>
  <path d="M70 118 Q100 128 130 118" stroke="#64748B" stroke-width="1.5" opacity="0.6"/>
  <rect x="88" y="155" width="24" height="10" rx="3" fill="#D4AF37"/>
  <text x="100" y="188" text-anchor="middle" fill="#D4AF37" font-family="monospace" font-size="11" font-weight="bold">KD</text>
</svg>
